<?xml version="1.0" encoding="UTF-8"?>
<svg version="1.1" xmlns="http://www.w3.org/2000/svg" width="600" height="600">
<path d="M0 0 C198 0 396 0 600 0 C600 198 600 396 600 600 C402 600 204 600 0 600 C0 402 0 204 0 0 Z " fill="#FCFCFC" transform="translate(0,0)"/>
<path d="M0 0 C198 0 396 0 600 0 C600 198 600 396 600 600 C402 600 204 600 0 600 C0 402 0 204 0 0 Z M97 121 C93.7970135 124.51521203 90.87057326 128.20967163 88 132 C87.24460938 132.92683594 86.48921875 133.85367188 85.7109375 134.80859375 C63.84085881 162.05940608 47.62022629 195.18113913 39 229 C38.63479248 230.41224854 38.63479248 230.41224854 38.26220703 231.85302734 C29.01821 268.10298725 27.03350253 305.01157331 33 342 C33.13921875 342.86898926 33.2784375 343.73797852 33.421875 344.63330078 C41.0367989 390.24352207 60.18896082 434.51329162 90 470 C90.81082031 470.99515625 91.62164062 471.9903125 92.45703125 473.015625 C104.43296815 487.52584412 117.84613605 501.78489686 133 513 C133.6089209 513.4635791 134.2178418 513.9271582 134.84521484 514.40478516 C174.38546863 544.4689963 220.61426689 563.2741179 270 569 C270.68578125 569.0928125 271.3715625 569.185625 272.078125 569.28125 C310.04161589 573.90289237 347.69587071 567.91107711 384 557 C384.88171875 556.75765625 385.7634375 556.5153125 386.671875 556.265625 C391.91166204 554.80108825 396.73256655 552.888884 401.6484375 550.5625 C404.24475927 549.35209358 406.84599319 548.19411631 409.4765625 547.0625 C431.38697944 537.57247198 451.66296604 525.32952679 470 510 C470.93328125 509.25105469 471.8665625 508.50210937 472.828125 507.73046875 C486.84276338 496.35548941 500.07898039 483.38697194 511 469 C511.77988281 468.02546875 512.55976562 467.0509375 513.36328125 466.046875 C530.51410802 444.52262102 542.99799378 420.55138498 553 395 C553.26554688 394.34016113 553.53109375 393.68032227 553.8046875 393.00048828 C556.31552146 386.60022403 558.12039532 379.9818811 560 373.375 C560.34289062 372.19292969 560.68578125 371.01085937 561.0390625 369.79296875 C580.27717581 302.45957215 569.90068062 229.33610398 536.4453125 168.29296875 C529.2623867 155.51376675 521.29519214 143.33840774 512 132 C511.57879883 131.47728516 511.15759766 130.95457031 510.72363281 130.41601562 C498.47969399 115.27772289 484.54928626 100.75153432 469 89 C468.02675781 88.22140625 467.05351562 87.4428125 466.05078125 86.640625 C444.5278838 69.48610346 420.55217551 57.00231567 395 47 C394.0102417 46.60167969 394.0102417 46.60167969 393.00048828 46.1953125 C386.60022403 43.68447854 379.9818811 41.87960468 373.375 40 C371.60189453 39.48566406 371.60189453 39.48566406 369.79296875 38.9609375 C281.80347044 13.82108084 183.77942621 38.86049532 97 121 Z " fill="#FEFEFE" transform="translate(0,0)"/>
<path d="M0 0 C10.45590685 7.15613397 16.11555201 17.96384353 20.0546875 29.78125 C20.28657372 32.50456488 20.18562118 35.03164269 20.0546875 37.78125 C19.3946875 38.44125 18.7346875 39.10125 18.0546875 39.78125 C13.05412815 39.69352089 10.09516558 38.959401 5.9296875 36.21875 C-3.92949348 30.38293174 -17.11461021 34.26486069 -27.5703125 36.71875 C-28.80910156 36.99654297 -30.04789063 37.27433594 -31.32421875 37.56054688 C-35.87770879 38.58644175 -40.41701396 39.64917536 -44.9453125 40.78125 C-45.9353125 50.35125 -46.9253125 59.92125 -47.9453125 69.78125 C-44.36816406 69.348125 -40.79101562 68.915 -37.10546875 68.46875 C-33.62051204 68.05048525 -30.13534201 67.63404298 -26.65014648 67.21777344 C-24.23780819 66.92866151 -21.82569425 66.63767093 -19.41381836 66.34472656 C-15.93661604 65.92272554 -12.45864906 65.50760337 -8.98046875 65.09375 C-7.91135757 64.96250732 -6.8422464 64.83126465 -5.74073792 64.69604492 C10.74785406 62.75491825 10.74785406 62.75491825 14.40234375 65.625 C16.35421976 68.64840703 18.25765139 71.66193291 20.0546875 74.78125 C20.6113208 75.72073486 20.6113208 75.72073486 21.17919922 76.67919922 C26.10679576 85.11309063 30.20210329 92.80208249 28.0546875 102.78125 C26.31717103 108.81418582 24.1565569 114.68480102 21.90917969 120.54345703 C20.86707132 123.27258997 19.89773907 126.02510317 18.9296875 128.78125 C16.82905232 134.52603056 14.45071174 140.15452095 12.0546875 145.78125 C12.91465332 145.98028931 12.91465332 145.98028931 13.79199219 146.18334961 C30.51084114 150.60118097 54.36434845 159.66102104 64.81640625 174.23828125 C66.84172142 178.39752471 66.83199037 182.26549046 66.0546875 186.78125 C63.9921875 189.90625 63.9921875 189.90625 61.0546875 191.78125 C54.70593282 192.47310147 49.71308749 190.49603472 43.8671875 188.34375 C36.84439593 185.86238403 30.62085481 184.00145936 23.13671875 183.8515625 C21.0546875 183.78125 21.0546875 183.78125 19.0546875 182.78125 C17.6799726 182.68201096 16.30063781 182.64296874 14.92236328 182.63598633 C14.06611359 182.62960648 13.20986389 182.62322662 12.32766724 182.61665344 C11.39453705 182.61554062 10.46140686 182.6144278 9.5 182.61328125 C8.5292453 182.60995285 7.5584906 182.60662445 6.55831909 182.60319519 C4.48859124 182.59811843 2.41885516 182.59578709 0.34912109 182.59594727 C-2.74526606 182.59380203 -5.83927177 182.57577205 -8.93359375 182.55664062 C-25.74464808 182.50798125 -42.19654131 183.69839705 -58.7578125 186.65625 C-59.74934326 186.82769531 -60.74087402 186.99914062 -61.76245117 187.17578125 C-63.81088473 187.53065095 -65.85882717 187.88836807 -67.90625 188.24902344 C-70.9069179 188.77452601 -73.90987885 189.28408294 -76.9140625 189.7890625 C-85.16940394 191.18701729 -93.38258438 192.61604593 -101.5456543 194.48632812 C-114.24313997 197.3697128 -126.92920181 199.20570522 -138.9453125 192.78125 C-140.64197638 191.48630319 -142.31661983 190.16071212 -143.9453125 188.78125 C-142.96134966 197.64986246 -141.32168397 205.52062222 -137.9453125 213.78125 C-122.57790199 212.46737781 -107.23618886 210.82554718 -92.14453125 207.59765625 C-77.09145716 204.5338906 -61.69123906 202.82879521 -46.45483398 200.93237305 C-40.47263262 200.16892029 -34.54909675 199.21011104 -28.61328125 198.14624023 C-12.0565199 195.20064661 3.23696831 192.74209103 18.0234375 202.80078125 C24.57379713 207.93849464 33.13550535 214.69177507 36.0546875 222.78125 C36.30801674 227.86223293 35.65896045 232.06568002 34.296875 236.953125 C34.11337997 237.62437912 33.92988495 238.29563324 33.74082947 238.98722839 C33.347833 240.42415171 32.95126763 241.86010296 32.55142212 243.2951355 C31.4896535 247.11386481 30.46055205 250.94131629 29.43359375 254.76953125 C29.2271373 255.53846207 29.02068085 256.30739288 28.80796814 257.09962463 C25.83958094 268.23941895 23.46292205 279.50992271 21.0546875 290.78125 C20.00122036 295.67908604 18.93641878 300.57433468 17.8671875 305.46875 C17.62911377 306.58564209 17.39104004 307.70253418 17.14575195 308.85327148 C13.83878801 323.99714949 13.83878801 323.99714949 10.0546875 327.78125 C8.0546875 327.59375 8.0546875 327.59375 6.0546875 326.78125 C5.3946875 325.79125 4.7346875 324.80125 4.0546875 323.78125 C0.96041605 323.63769318 -1.89067956 323.70014666 -4.96875 323.91015625 C-5.93058197 323.96530899 -6.89241394 324.02046173 -7.88339233 324.07728577 C-21.72608224 324.92932522 -35.53971752 326.24150322 -49.34881592 327.51470947 C-53.77820718 327.92154122 -58.20838505 328.31974011 -62.63843918 328.71927834 C-66.19745301 329.04120534 -69.75585021 329.36825028 -73.31329346 329.7071228 C-79.3315599 330.27913971 -85.34396151 330.82706892 -91.37792969 331.20751953 C-92.7872023 331.30898033 -92.7872023 331.30898033 -94.22494507 331.41249084 C-95.90527778 331.53130057 -97.58734736 331.6286235 -99.27041626 331.69871521 C-101.69849862 331.81901547 -101.69849862 331.81901547 -104.9453125 332.78125 C-106.9176487 335.62480256 -106.9176487 335.62480256 -107.9453125 338.78125 C-111.07122454 342.28606047 -112.72853146 343.62915237 -117.4453125 344.21875 C-127.31681244 344.04056408 -135.30315771 335.20013908 -141.9453125 328.78125 C-142.8049762 328.04259201 -143.66463989 327.30393402 -144.550354 326.54289246 C-147.45262133 323.19626883 -147.57470716 321.71793009 -147.58886719 317.34887695 C-147.6134903 315.42450554 -147.6134903 315.42450554 -147.63861084 313.46125793 C-147.63183804 312.06401387 -147.62468678 310.6667716 -147.6171875 309.26953125 C-147.62778745 307.81762379 -147.64070715 306.36573161 -147.65582275 304.91386414 C-147.69003707 301.08527291 -147.69540741 297.25719002 -147.69390869 293.4284668 C-147.69755804 287.35912623 -147.7496255 281.28984843 -147.79081726 275.22066879 C-147.80458396 273.03596308 -147.81491774 270.85126065 -147.8248291 268.66653442 C-147.87851152 258.67858026 -148.17971152 248.74029436 -148.9453125 238.78125 C-150.02868896 238.57991455 -151.11206543 238.3785791 -152.22827148 238.17114258 C-153.47552002 237.93935303 -154.72276855 237.70756348 -156.0078125 237.46875 C-157.08687866 237.27478638 -157.08687866 237.27478638 -158.18774414 237.0769043 C-165.21136512 235.71962278 -170.9253287 233.74000952 -175.47265625 227.9921875 C-180.43585715 220.54080366 -183.80377172 212.12811747 -186.9453125 203.78125 C-187.44788851 202.45832264 -187.95049512 201.1354069 -188.453125 199.8125 C-194.9453125 182.64897532 -194.9453125 182.64897532 -194.9453125 178.78125 C-195.6053125 178.78125 -196.2653125 178.78125 -196.9453125 178.78125 C-196.93843918 179.84151649 -196.93843918 179.84151649 -196.931427 180.92320251 C-196.81863708 201.40660725 -197.15038975 221.86143042 -197.68994141 242.3371582 C-197.77743354 245.66226445 -197.86076141 248.98742962 -197.93994141 252.31274414 C-198.19417359 262.97199636 -198.4950288 273.62867018 -198.86070251 284.28470612 C-198.94729235 286.83966829 -199.02886984 289.39476435 -199.11047363 291.94989014 C-199.24977021 296.19974273 -199.4164777 300.44780237 -199.60208511 304.69587517 C-199.66840305 306.28767708 -199.72715358 307.87981597 -199.77758408 309.47220039 C-200.06261242 318.23475189 -200.41354526 326.50607793 -205.9453125 333.78125 C-209.99285 337.2503762 -213.41835477 338.0784347 -218.76171875 338 C-225.44524751 337.3304515 -231.91410131 333.97917781 -236.5078125 329.1328125 C-247.7526166 315.35792748 -247.29396643 297.11921037 -247.1953125 280.28125 C-247.19287537 279.37197754 -247.19043823 278.46270508 -247.18792725 277.52587891 C-247.15044796 265.5555712 -246.82949035 253.66887727 -245.81021118 241.73626709 C-244.97006599 231.8800558 -244.44618388 222.02033162 -243.9765625 212.140625 C-243.93418079 211.26064598 -243.89179909 210.38066696 -243.84813309 209.47402191 C-242.83340173 188.3328264 -242.03670943 167.18444717 -241.3203125 146.03125 C-241.28804943 145.07963863 -241.25578636 144.12802727 -241.22254562 143.14757919 C-240.07237982 110.24845947 -240.07237982 110.24845947 -239.52545166 77.33557129 C-239.51392748 75.54425871 -239.49625039 73.75297228 -239.47161865 71.96179199 C-239.34912046 61.94811244 -240.26441054 53.23166511 -243.9453125 43.78125 C-244.30343018 42.85715332 -244.66154785 41.93305664 -245.03051758 40.98095703 C-247.72092526 34.40918428 -252.09252682 30.63631042 -257.6171875 26.30078125 C-260.55816934 23.11800728 -260.84669617 21.06119874 -260.9453125 16.78125 C-258.54845573 11.88766742 -254.64781037 7.58921636 -249.9453125 4.78125 C-242.76743576 2.33594784 -235.66038099 2.41421147 -228.1328125 2.40625 C-226.92560547 2.38175781 -225.71839844 2.35726562 -224.47460938 2.33203125 C-214.33842205 2.29913935 -205.88392717 4.36312379 -197.48046875 10.14453125 C-191.25228086 16.78476211 -191.41814482 22.92499124 -191.63671875 31.65234375 C-191.65311905 32.9208165 -191.66951935 34.18928925 -191.68641663 35.49620056 C-191.73321002 38.89976083 -191.80802049 42.30206286 -191.89334869 45.70485687 C-191.9446459 47.7546136 -191.99171612 49.80442871 -192.03778076 51.85430908 C-192.24347947 60.81744419 -192.51812329 69.77773225 -192.81414795 78.73828125 C-192.9063294 81.56485131 -192.99366802 84.39156263 -193.08098412 87.21828651 C-193.55142787 102.41390331 -194.09862221 117.60122121 -194.9453125 132.78125 C-193.9553125 132.45125 -192.9653125 132.12125 -191.9453125 131.78125 C-186.21812054 131.24094887 -183.38649056 132.1296147 -178.9453125 135.78125 C-176.22646878 138.66002571 -174.95241542 140.76095595 -173.6328125 144.53125 C-170.39812643 151.33568921 -162.33268424 154.4764348 -155.9453125 157.78125 C-155.0378125 158.26207031 -154.1303125 158.74289062 -153.1953125 159.23828125 C-141.82785253 164.52938515 -128.64861239 161.68615488 -116.9453125 158.78125 C-116.25630859 158.71043213 -115.56730469 158.63961426 -114.85742188 158.56665039 C-112.23246152 158.07032662 -110.96586927 157.56364744 -108.9453125 155.78125 C-106.61577801 150.64838409 -105.36820059 145.31249247 -104.0703125 139.84375 C-103.50966392 137.62066277 -102.93969565 135.40015297 -102.36740112 133.18003845 C-102.01557273 131.80108658 -101.67232124 130.41990956 -101.33889771 129.03639221 C-100.5291692 125.72490246 -99.64102579 122.74992127 -97.9453125 119.78125 C-100.2996941 120.40544898 -102.65381932 121.03058923 -105.0078125 121.65625 C-105.66458984 121.83027344 -106.32136719 122.00429687 -106.99804688 122.18359375 C-110.2482384 123.04817672 -113.48243053 123.93837374 -116.7109375 124.8828125 C-124.67685974 127.09556868 -129.61571507 125.65830609 -136.78125 121.8125 C-146.90143291 115.31559245 -155.96622166 106.34041885 -159.9453125 94.78125 C-160.23171929 92.04339525 -160.08374355 89.549871 -159.9453125 86.78125 C-158.9453125 85.78125 -158.9453125 85.78125 -156.0078125 85.40625 C-151.60917777 85.42420361 -148.52850428 87.41644959 -144.86328125 89.6875 C-135.4528551 93.2148351 -124.31365944 89.63273488 -114.7578125 87.84375 C-112.47216092 87.42415361 -110.18607189 87.00702827 -107.89982605 86.59068298 C-106.48800824 86.33269188 -105.07660718 86.07240494 -103.66572571 85.80934143 C-99.43529252 85.02548706 -95.2069003 84.36352089 -90.9453125 83.78125 C-90.83574219 82.71648437 -90.72617187 81.65171875 -90.61328125 80.5546875 C-89.59878671 71.1286151 -88.14058855 62.0160446 -85.9453125 52.78125 C-86.89792969 53.20277344 -87.85054687 53.62429687 -88.83203125 54.05859375 C-90.0988451 54.61223832 -91.36577855 55.16560931 -92.6328125 55.71875 C-93.25865234 55.99654297 -93.88449219 56.27433594 -94.52929688 56.56054688 C-107.30342255 62.11160672 -125.22319851 61.95062973 -138.22265625 57.03515625 C-148.37588691 52.35913467 -154.08030188 47.13981586 -159.8828125 37.59375 C-161.51039634 31.75359622 -161.69263316 25.79644862 -160.9453125 19.78125 C-159.421875 17.35546875 -159.421875 17.35546875 -157.9453125 15.78125 C-154.96236528 16.44755859 -152.29170077 17.41729644 -149.48828125 18.62890625 C-134.30989944 24.97247221 -122.9343357 27.02732167 -106.9453125 21.78125 C-104.94648075 21.18960417 -102.94342695 20.61363507 -100.94018555 20.03710938 C-88.91202123 16.56012352 -76.98067794 12.81539523 -65.116745 8.81556702 C-13.62761782 -8.53778466 -13.62761782 -8.53778466 0 0 Z " fill="#383536" transform="translate(432.9453125,128.21875)"/>
<path d="M0 0 C1.61213379 0.4343335 1.61213379 0.4343335 3.25683594 0.87744141 C6.46826101 1.75446287 9.67282693 2.65231385 12.875 3.5625 C13.83083984 3.83094727 14.78667969 4.09939453 15.77148438 4.37597656 C21.5674054 6.07407974 26.96073988 8.21504319 32.42333984 10.78833008 C34.68848191 11.85350916 36.96423745 12.85173095 39.2734375 13.81640625 C61.22429502 23.09883082 81.74820646 35.66735977 100 51 C100.99515625 51.81082031 101.9903125 52.62164062 103.015625 53.45703125 C117.52584412 65.43296815 131.78489686 78.84613605 143 94 C143.4635791 94.6089209 143.9271582 95.2178418 144.40478516 95.84521484 C174.45810598 135.37114576 193.304097 181.62252842 199 231 C199.0928125 231.71841064 199.185625 232.43682129 199.28125 233.17700195 C203.10172027 265.63394359 199.66040466 299.67629629 191 331 C190.5656665 332.60125732 190.5656665 332.60125732 190.12255859 334.23486328 C189.24430327 337.45320996 188.34664154 340.66525028 187.4375 343.875 C187.0348291 345.30936401 187.0348291 345.30936401 186.62402344 346.77270508 C184.93297395 352.54201912 182.80881935 357.9143432 180.24731445 363.35205078 C179.0896659 365.80964645 177.99817574 368.28386972 176.9296875 370.78125 C167.50168916 392.55641405 155.2829495 412.81272615 140 431 C139.17757813 432.00675781 138.35515625 433.01351563 137.5078125 434.05078125 C125.79282739 448.2166262 112.75670233 461.98024675 98 473 C97.4548877 473.41620605 96.90977539 473.83241211 96.34814453 474.26123047 C86.92910743 481.45005435 77.18293655 487.94677002 67 494 C66.31631348 494.4110498 65.63262695 494.82209961 64.92822266 495.24560547 C3.91955587 531.64047983 -70.19960512 539.66475364 -138.52734375 522.94921875 C-168.8620931 515.260189 -197.17373984 501.51930911 -223 484 C-223.61472168 483.58637207 -224.22944336 483.17274414 -224.86279297 482.74658203 C-245.92066078 468.49158338 -265.6703385 450.28375942 -281 430 C-281.77859375 429.02675781 -282.5571875 428.05351562 -283.359375 427.05078125 C-300.51247643 405.52966553 -313.00366004 381.55275978 -323 356 C-323.26627197 355.33363525 -323.53254395 354.66727051 -323.80688477 353.98071289 C-330.92105844 335.73856926 -335.32732172 316.35324939 -338 297 C-338.11569336 296.22479004 -338.23138672 295.44958008 -338.35058594 294.65087891 C-348.11247057 227.72258679 -328.96864444 156.89242729 -289.43359375 102.40234375 C-287.04187637 99.19746158 -284.53486903 96.09293322 -282 93 C-281.58411621 92.48260254 -281.16823242 91.96520508 -280.73974609 91.43212891 C-274.11713525 83.22089329 -266.86931271 75.66849527 -259.4375 68.1875 C-258.57535889 67.31609375 -257.71321777 66.4446875 -256.82495117 65.546875 C-250.85974274 59.61046764 -244.61455495 54.19982806 -238 49 C-237.24307861 48.40405029 -236.48615723 47.80810059 -235.70629883 47.1940918 C-196.28131801 16.60536105 -149.56823668 -2.25295807 -100 -8 C-99.31421875 -8.0928125 -98.6284375 -8.185625 -97.921875 -8.28125 C-65.1385119 -12.27226812 -31.68723671 -8.53721435 0 0 Z M-111 34 C-112.24982666 34.22478027 -112.24982666 34.22478027 -113.52490234 34.45410156 C-150.75185427 41.25413816 -185.81878799 57.99752967 -215 82 C-215.94311035 82.77174561 -215.94311035 82.77174561 -216.90527344 83.55908203 C-247.28507558 108.57914386 -271.42381259 141.1469129 -285.29150391 178.11523438 C-285.95933543 179.89182271 -286.65649091 181.65730847 -287.35546875 183.421875 C-308.38989716 238.56443808 -303.70694979 302.51072976 -280.03515625 355.83984375 C-272.37301532 372.46424025 -263.34878483 387.63292133 -252 402 C-251.29359375 402.89976562 -250.5871875 403.79953125 -249.859375 404.7265625 C-236.79455832 421.03408548 -222.15232218 435.98686917 -205 448 C-204.46391113 448.38188477 -203.92782227 448.76376953 -203.37548828 449.15722656 C-187.76365132 460.22900192 -170.81345343 469.56602928 -152.88476562 476.29150391 C-151.10817729 476.95933543 -149.34269153 477.65649091 -147.578125 478.35546875 C-137.31975206 482.26858049 -126.70877767 484.66190292 -116 487 C-114.89495117 487.25644287 -114.89495117 487.25644287 -113.76757812 487.51806641 C-99.61077232 490.6273563 -85.24881533 491.3345806 -70.8034668 491.26074219 C-68.30297885 491.24995894 -65.80320177 491.26075344 -63.30273438 491.2734375 C-53.35641801 491.28272901 -43.82817495 490.65164827 -34 489 C-32.58859741 488.76651855 -32.58859741 488.76651855 -31.14868164 488.52832031 C10.73566569 481.09640971 51.62539569 462.09882276 82.85546875 432.9921875 C84.79217432 431.19306211 86.78148736 429.50290804 88.8125 427.8125 C99.11733128 418.79837486 108.05775509 408.11372155 116 397 C116.69343506 396.03465332 116.69343506 396.03465332 117.40087891 395.04980469 C130.59162178 376.49027532 140.63019353 356.52251786 148 335 C148.28069336 334.19079102 148.56138672 333.38158203 148.85058594 332.54785156 C156.64659617 309.83933178 160.4161672 286.99138482 160.3125 263 C160.31026428 261.71724182 160.31026428 261.71724182 160.3079834 260.40856934 C160.26527292 246.74440234 159.52816124 233.45591107 157 220 C156.85014648 219.16678223 156.70029297 218.33356445 156.54589844 217.47509766 C153.87515233 202.85403853 149.89936001 188.66268718 144 175 C143.62415771 174.09338623 143.62415771 174.09338623 143.24072266 173.16845703 C136.15005779 156.07803167 127.42891161 139.60360929 116 125 C115.2678125 124.00484375 114.535625 123.0096875 113.78125 121.984375 C100.46716988 103.96926721 84.19496544 88.04876651 66 75 C65.35498535 74.53625977 64.7099707 74.07251953 64.04541016 73.59472656 C45.48725335 60.40623345 25.52013941 50.36899203 4 43 C3.19079102 42.71930664 2.38158203 42.43861328 1.54785156 42.14941406 C-21.16066822 34.35340383 -44.00861518 30.5838328 -68 30.6875 C-68.85517212 30.68899048 -69.71034424 30.69048096 -70.59143066 30.6920166 C-84.25559766 30.73472708 -97.54408893 31.47183876 -111 34 Z " fill="#383536" transform="translate(370,39)"/>
<path d="M0 0 C2.11385217 1.6674232 2.91445972 2.4793175 3.35644531 5.16967773 C3.34709961 5.99927002 3.33775391 6.8288623 3.328125 7.68359375 C3.32393555 8.60470947 3.31974609 9.5258252 3.31542969 10.47485352 C3.28304199 11.94136353 3.28304199 11.94136353 3.25 13.4375 C3.22921387 14.94364868 3.22921387 14.94364868 3.20800781 16.48022461 C3.15918975 19.32111326 3.08576777 22.16001487 3 25 C2.9690625 26.11632812 2.938125 27.23265625 2.90625 28.3828125 C1.28649606 56.16159263 -7.33625628 85.68718884 -16 112 C-16.26216309 112.80058838 -16.52432617 113.60117676 -16.79443359 114.42602539 C-22.60137657 132.02409582 -31.4914644 151.59609942 -48.48046875 160.96484375 C-52.45427471 162.59749271 -55.80561172 162.91322905 -60 162 C-66.75752904 158.9524869 -70.35356437 152.77373499 -73.23046875 146.1796875 C-75.91258446 139.072565 -78.13488862 131.67244907 -77 124 C-75.70200281 121.3700734 -73.93506101 119.24479298 -72.0625 117 C-61.55726556 103.49762912 -54.93969318 88.97684096 -49 73 C-48.60039062 71.96746094 -48.20078125 70.93492187 -47.7890625 69.87109375 C-39.32291965 46.60613319 -37.8191148 21.44983883 -36 -3 C-23.66274003 -6.96896348 -11.47203487 -6.17992774 0 0 Z " fill="#383536" transform="translate(180,243)"/>
<path d="M0 0 C0.4947932 8.96247639 -0.82990416 17.39813211 -2.39868164 26.17919922 C-2.81142614 28.49397751 -3.20854126 30.81103683 -3.60351562 33.12890625 C-6.99029495 52.72970481 -6.99029495 52.72970481 -9 57 C-12.15040531 59.00450665 -14.91384281 59.34565959 -18.6003418 59.59423828 C-19.72639328 59.67417023 -20.85244476 59.75410217 -22.01261902 59.8364563 C-23.22919693 59.91362885 -24.44577484 59.99080139 -25.69921875 60.0703125 C-26.96280716 60.15626678 -28.22639557 60.24222107 -29.52827454 60.33078003 C-32.21048423 60.51127477 -34.8926615 60.68841619 -37.57543945 60.85986328 C-40.96255479 61.07659206 -44.34868038 61.30574512 -47.73469353 61.53899002 C-61.49992684 62.48338882 -75.19822529 63.34291701 -89 63 C-89.42995128 56.41651504 -89.85688274 49.83283919 -90.28173828 43.24902344 C-90.4265541 41.01037179 -90.57205528 38.77176438 -90.71826172 36.53320312 C-90.92857163 33.31131249 -91.13639775 30.08926967 -91.34375 26.8671875 C-91.44218201 25.37153763 -91.44218201 25.37153763 -91.54260254 23.84567261 C-91.83789813 19.22160311 -92.0819432 14.63661961 -92 10 C-86.10505226 7.58235128 -80.09131806 7.26264234 -73.8125 6.6875 C-71.2236142 6.43792201 -68.63508085 6.18610066 -66.046875 5.9296875 C-64.99875389 5.82624779 -64.99875389 5.82624779 -63.92945862 5.72071838 C-57.94898633 5.11938907 -51.98257915 4.41752007 -46.015625 3.6953125 C-45.07043503 3.58167862 -44.12524506 3.46804474 -43.15141296 3.35096741 C-39.36062633 2.89470089 -35.5699654 2.43813057 -31.78115845 1.96566772 C-21.11989843 0.63773411 -10.76280427 -0.37399706 0 0 Z " fill="#FCFCFC" transform="translate(417,361)"/>
<path d="M0 0 C2 2 2 2 2.3125 5.875 C2.06189513 15.19160461 -1.27782912 24.10433327 -4 32.9375 C-4.2489502 33.75460449 -4.49790039 34.57170898 -4.75439453 35.41357422 C-7.58614439 44.3909816 -7.58614439 44.3909816 -10 47 C-12.96985662 47.55646382 -15.39537659 47.79069488 -18.375 47.8125 C-19.17341309 47.83691162 -19.97182617 47.86132324 -20.79443359 47.88647461 C-23.19674655 47.95209713 -25.59690137 47.98190135 -28 48 C-28.69802734 48.00837891 -29.39605469 48.01675781 -30.11523438 48.02539062 C-33.74456583 48.06511465 -37.37095456 48.05770567 -41 48 C-40.85522217 46.98703857 -40.71044434 45.97407715 -40.5612793 44.93041992 C-40.21270856 42.48951503 -39.8661393 40.04832235 -39.52270508 37.60668945 C-39.07543547 34.50141005 -38.60532965 31.40073281 -38.11791992 28.30151367 C-37.91370183 26.97156581 -37.71908735 25.64010901 -37.53393555 24.30737305 C-37.26224721 22.36405005 -36.95381159 20.42597691 -36.64453125 18.48828125 C-36.47284424 17.33884033 -36.30115723 16.18939941 -36.12426758 15.00512695 C-34.63595727 11.02692682 -32.6692505 9.99740001 -29 8 C-9.53322209 -0.8212742 -9.53322209 -0.8212742 0 0 Z " fill="#FAFAFA" transform="translate(411,225)"/>
<path d="M0 0 C0.66 0 1.32 0 2 0 C2.38218767 1.65614657 2.71395102 3.32457024 3 5 C2.67 5.33 2.34 5.66 2 6 C1.76298761 8.85877909 1.57780818 11.69883297 1.4375 14.5625 C1.39431641 15.36880859 1.35113281 16.17511719 1.30664062 17.00585938 C1.20024738 19.00368805 1.09959112 21.0018207 1 23 C0.67 23 0.34 23 0 23 C0 15.41 0 7.82 0 0 Z " fill="#E1E1E1" transform="translate(236,307)"/>
</svg>
